<svg style="display:none"><symbol viewBox="0 0 48 48" id="icon-fixed" xmlns="http://www.w3.org/2000/svg"><path d="M24 0C10.8 0 0 10.8 0 24s10.8 24 24 24 24-10.8 24-24S37.2 0 24 0m-4.8 36-12-12 3.384-3.384 8.616 8.592 18.216-18.216L40.8 14.4Z"/></symbol><symbol viewBox="0 0 48 48" id="icon-ignore" xmlns="http://www.w3.org/2000/svg"><path d="M24 0C10.746 0 0 10.746 0 24s10.746 24 24 24 24-10.746 24-24S37.254 0 24 0Zm0 6c3.885 0 7.46 1.266 10.401 3.363L9.357 34.395C7.26 31.453 6 27.879 6 24c0-9.925 8.075-18 18-18Zm0 36c-3.885 0-7.46-1.266-10.401-3.363l25.044-25.032C40.74 16.547 42 20.121 42 24c0 9.925-8.075 18-18 18Z"/></symbol><symbol viewBox="0 0 310.29 310.29" id="icon-no-error"><path d="M264.845 45.441C235.542 16.139 196.583 0 155.142 0 113.702 0 74.743 16.139 45.44 45.441 16.138 74.743 0 113.703 0 155.144c0 41.439 16.138 80.399 45.44 109.701 29.303 29.303 68.262 45.44 109.702 45.44s80.399-16.138 109.702-45.44c29.303-29.302 45.44-68.262 45.44-109.701.001-41.441-16.137-80.401-45.439-109.703zm-132.673 3.895a12.587 12.587 0 0 1 9.119-3.873h28.04c3.482 0 6.72 1.403 9.114 3.888 2.395 2.485 3.643 5.804 3.514 9.284l-4.634 104.895c-.263 7.102-6.26 12.933-13.368 12.933H146.33c-7.112 0-13.099-5.839-13.345-12.945L128.64 58.594c-.121-3.48 1.133-6.773 3.532-9.258zm23.306 219.444c-16.266 0-28.532-12.844-28.532-29.876 0-17.223 12.122-30.211 28.196-30.211 16.602 0 28.196 12.423 28.196 30.211.001 17.591-11.456 29.876-27.86 29.876z"/></symbol><symbol viewBox="0 0 100 100" preserveAspectRatio="xMidYMid" id="icon-rolling" xmlns="http://www.w3.org/2000/svg"><circle cx="50" cy="50" fill="none" r="40"/></symbol><symbol viewBox="0 0 310.29 310.29" id="icon-to-be-fixed"><path d="M264.845 45.441C235.542 16.139 196.583 0 155.142 0 113.702 0 74.743 16.139 45.44 45.441 16.138 74.743 0 113.703 0 155.144c0 41.439 16.138 80.399 45.44 109.701 29.303 29.303 68.262 45.44 109.702 45.44s80.399-16.138 109.702-45.44c29.303-29.302 45.44-68.262 45.44-109.701.001-41.441-16.137-80.401-45.439-109.703zm-132.673 3.895a12.587 12.587 0 0 1 9.119-3.873h28.04c3.482 0 6.72 1.403 9.114 3.888 2.395 2.485 3.643 5.804 3.514 9.284l-4.634 104.895c-.263 7.102-6.26 12.933-13.368 12.933H146.33c-7.112 0-13.099-5.839-13.345-12.945L128.64 58.594c-.121-3.48 1.133-6.773 3.532-9.258zm23.306 219.444c-16.266 0-28.532-12.844-28.532-29.876 0-17.223 12.122-30.211 28.196-30.211 16.602 0 28.196 12.423 28.196 30.211.001 17.591-11.456 29.876-27.86 29.876z"/></symbol></svg>