<svg xmlns="http://www.w3.org/2000/svg" viewBox="0 0 24 24" width="1em" height="1em" class="cv-i cv-i-download" aria-hidden="true"><path fill="currentColor" d="M12 17.36q-.3 0-.56-.1-.26-.09-.49-.31l-5.4-5.4q-.41-.41-.41-1.05 0-.64.41-1.05.41-.41 1.07-.43.66-.02 1.07.4l2.81 2.8V1.5q0-.64.43-1.07Q11.36 0 12 0q.64 0 1.07.43.43.43.43 1.07v10.72l2.81-2.8q.42-.42 1.07-.4.66.02 1.07.43.41.41.41 1.05 0 .64-.41 1.05l-5.4 5.4q-.23.23-.49.32-.26.1-.56.1ZM3 24q-1.24 0-2.12-.88Q0 22.24 0 21v-3q0-.64.43-1.07.43-.43 1.07-.43.64 0 1.07.43Q3 17.36 3 18v3h18v-3q0-.64.43-1.07.43-.43 1.07-.43.64 0 1.07.43.43.43.43 1.07v3q0 1.24-.88 2.12-.88.88-2.12.88Z"/></svg>