<svg xmlns="http://www.w3.org/2000/svg" viewBox="0 0 16 16" width="1em" height="1em" class="cv-i cv-i-fixed" aria-hidden="true"><path fill="currentColor" d="M8 0a8 8 0 0 0-8 8 8 8 0 0 0 8 8 8 8 0 0 0 8-8 8 8 0 0 0-8-8Zm5.22 3.3c.22 0 .4.07.56.23a.76.76 0 0 1 .23.55.75.75 0 0 1-.23.56l-6.82 6.82a.82.82 0 0 1-.27.18.77.77 0 0 1-.3.06.77.77 0 0 1-.28-.06.82.82 0 0 1-.28-.18L2.65 8.27a.75.75 0 0 1-.22-.57.81.81 0 0 1 .24-.58.77.77 0 0 1 .56-.22c.23 0 .42.07.57.22l2.63 2.64 6.24-6.23a.75.75 0 0 1 .55-.23z"/></svg>