<svg xmlns="http://www.w3.org/2000/svg" viewBox="0 0 16 16" width="1em" height="1em" class="cv-i cv-i-to-be-fixed" aria-hidden="true"><path fill="currentColor" d="M13.66 2.34A7.95 7.95 0 0 0 8 0C5.86 0 3.85.83 2.34 2.34A7.95 7.95 0 0 0 0 8c0 2.14.83 4.15 2.34 5.66A7.95 7.95 0 0 0 8 16c2.14 0 4.15-.83 5.66-2.34A7.95 7.95 0 0 0 16 8c0-2.14-.83-4.15-2.34-5.66Zm-6.84.2c.12-.12.29-.2.47-.2h1.44a.65.65 0 0 1 .65.68l-.24 5.41a.7.7 0 0 1-.69.67h-.9a.7.7 0 0 1-.7-.67l-.22-5.4c0-.19.06-.36.19-.49Zm1.2 11.32c-.84 0-1.47-.66-1.47-1.54 0-.89.62-1.56 1.45-1.56.86 0 1.45.64 1.45 1.56 0 .9-.59 1.54-1.43 1.54z"/></svg>